PathFileType	4	(X/Y/Z)	./resultDataOpenSim/trcMotMarkerGrf/sub09/qtm-15-04.trc
DataRate	CameraRate	NumFrames	NumMarkers	Units	OrigDataRate	OrigDataStartFrame	OrigNumFrames
250.000000	250.000000	11	24	m	250.000000	1	484
Frame#	Time	L.Toe.Tip			R.Toe.Tip			L.Ankle.Lat			R.Ankle.Lat			L.Ankle.Med			R.Ankle.Med			L.Heel			R.Heel			L.Knee.Lat			R.Knee.Lat			L.Knee.Med			R.Knee.Med			L.Thigh.Upper			R.Thigh.Upper			L.ASIS			R.ASIS			V.Sacral			L.Acromium			R.Acromium			C7			L.Elbow			R.Elbow			L.Wrist.Lat			R.Wrist.Lat
		X1	Y1	Z1	X2	Y2	Z2	X3	Y3	Z3	X4	Y4	Z4	X5	Y5	Z5	X6	Y6	Z6	X7	Y7	Z7	X8	Y8	Z8	X9	Y9	Z9	X10	Y10	Z10	X11	Y11	Z11	X12	Y12	Z12	X13	Y13	Z13	X14	Y14	Z14	X15	Y15	Z15	X16	Y16	Z16	X17	Y17	Z17	X18	Y18	Z18	X19	Y19	Z19	X20	Y20	Z20	X21	Y21	Z21	X22	Y22	Z22	X23	Y23	Z23	X24	Y24	Z24

1	0	-1.5349022	0.036717515	-0.028326962	-1.0486899	0.076126539	0.095354764	-1.6822839	0.075050716	-0.064553536	-1.1981968	0.073090296	0.11384528	-1.6613834	0.092820337	0.031092623	-1.1828029	0.11161138	0.024481093	NaN	NaN	NaN	-1.2520505	0.039760613	0.05436361	-1.5389374	0.46812803	-0.12213736	-1.2165206	0.52842705	0.16475508	-1.538844	0.47060183	0.0023587826	-1.2106336	0.51271343	0.039538473	-1.4436737	0.88013292	-0.16909526	-1.4216349	0.87792391	0.20139126	-1.3410151	0.95507759	-0.11286269	-1.3410857	0.96006676	0.12787274	-1.5040979	1.0213449	0.013780418	-1.3049132	1.4077682	-0.14365269	-1.3425717	1.4205396	0.18151481	-1.3833845	1.4658125	0.0099890736	-1.4142232	1.0508586	-0.23224296	NaN	NaN	NaN	-1.1697841	0.9275657	-0.22426939	-1.4180314	0.85479658	0.31712449
2	0.004	-1.534787	0.03668872	-0.028371998	-1.030317	0.078509465	0.096548466	-1.6821377	0.075672189	-0.064196436	-1.1797732	0.072479377	0.11449153	-1.6603321	0.093465712	0.03106009	-1.1649074	0.11146208	0.025210899	NaN	NaN	NaN	-1.2339085	0.038732557	0.05299567	-1.5370151	0.46805222	-0.1221361	-1.2087409	0.52766359	0.16555815	-1.5377734	0.4705302	0.0025166097	-1.2034893	0.51163008	0.039988697	-1.4382797	0.87909711	-0.16891731	-1.4157264	0.87650228	0.20154435	-1.3352131	0.95368629	-0.11296534	-1.3349253	0.95860976	0.12787507	-1.4981218	1.0198964	0.013842234	-1.2991998	1.4066924	-0.14329225	-1.3368056	1.4190401	0.18182592	-1.3775387	1.4648732	0.012870638	-1.4073712	1.0492005	-0.23254877	NaN	NaN	NaN	-1.1620298	0.92803476	-0.22373193	-1.4119024	0.85327838	0.31734925
3	0.008	-1.5346928	0.036644635	-0.028408508	-1.0121381	0.081011595	0.097705383	-1.6819438	0.07631905	-0.063834771	-1.1615615	0.07197788	0.11513488	-1.659425	0.09411627	0.031081897	-1.1471984	0.1114137	0.025965283	NaN	NaN	NaN	-1.2152245	0.037517141	0.052664139	-1.5350298	0.46800758	-0.12214152	-1.2017755	0.52673431	0.16618891	-1.5363308	0.47048609	0.0026878382	-1.1963844	0.51052148	0.040418589	-1.4328175	0.87804514	-0.16873412	-1.4098231	0.87506091	0.20170436	-1.3293982	0.95229478	-0.11305122	-1.3287636	0.9571612	0.12790005	-1.4921291	1.0184419	0.013933513	-1.293488	1.4056184	-0.14293451	-1.3310531	1.4175451	0.18215912	-1.3717332	1.4638597	0.015219112	-1.4006041	1.047527	-0.23324329	NaN	NaN	NaN	-1.1542957	0.92847245	-0.22315715	-1.4057511	0.85173739	0.31754788
4	0.012	-1.5346301	0.036580283	-0.028427397	-0.99420788	0.083726678	0.098795371	-1.6815883	0.077011407	-0.063484341	-1.143659	0.071654269	0.11578943	-1.6586665	0.094784412	0.031176547	-1.1297778	0.11152533	0.026762059	NaN	NaN	NaN	-1.1958574	0.036089821	0.053719276	-1.5329366	0.46800066	-0.12215013	-1.1958331	0.52557072	0.16659562	-1.5344413	0.47046839	0.0028589218	-1.1893162	0.50936741	0.040806218	-1.4272785	0.87697445	-0.16853053	-1.4039076	0.8735824	0.2018765	-1.3235525	0.95090826	-0.11310678	-1.322578	0.9557153	0.12795056	-1.4860964	1.0169774	0.014074775	-1.2877678	1.4045488	-0.14257612	-1.325309	1.4160497	0.18252006	-1.3659553	1.4627441	0.016758675	-1.3939167	1.0458946	-0.23427075	NaN	NaN	NaN	-1.1465913	0.92885797	-0.22253379	-1.3995233	0.85016582	0.3177164
5	0.016	-1.5345923	0.036506677	-0.028429967	-0.97647528	0.086703746	0.099837584	-1.6809505	0.0777786	-0.063181745	-1.1260656	0.071545178	0.11649073	-1.6579682	0.095476146	0.031333432	-1.1126945	0.11181814	0.027607498	NaN	NaN	NaN	-1.1763905	0.034714576	0.055410574	-1.5307002	0.46801595	-0.12215296	-1.1903828	0.5242413	0.16689517	-1.5322475	0.47045436	0.0030098976	-1.1822828	0.50815933	0.041136908	-1.4217202	0.87589038	-0.16827243	-1.3979663	0.87206123	0.20206518	-1.3176727	0.94953473	-0.11312919	-1.3163491	0.95426146	0.1280138	-1.4800306	1.0154895	0.014244022	-1.2820259	1.4034825	-0.14220783	-1.3195608	1.4145494	0.1828989	-1.3601867	1.4615577	0.017582505	-1.3872329	1.0443659	-0.23520233	NaN	NaN	NaN	-1.1389325	0.92918505	-0.22187267	-1.3931721	0.8485688	0.31786276
6	0.02	-1.5345615	0.036442936	-0.02842937	-0.95889798	0.089957168	0.10088359	-1.680104	0.078639925	-0.062948373	-1.1087568	0.071657645	0.11725803	-1.65728	0.096176764	0.031525649	-1.0959486	0.11230202	0.028495492	NaN	NaN	NaN	-1.1574936	0.033677031	0.056824001	-1.5282869	0.46803378	-0.12214467	-1.1848128	0.52284442	0.16722602	-1.5298182	0.47042991	0.003125554	-1.1752906	0.50689814	0.041418219	-1.4161833	0.87479488	-0.16792611	-1.3919853	0.87050322	0.20227466	-1.3117584	0.94817095	-0.11312743	-1.3100586	0.95279743	0.12807551	-1.4739632	1.0139532	0.014374958	-1.2762459	1.4024111	-0.14182416	-1.31379	1.4130462	0.18328626	-1.3544121	1.4603378	0.018007233	-1.3804923	1.0429357	-0.23574803	NaN	NaN	NaN	-1.1313281	0.92945383	-0.22118651	-1.386708	0.84695537	0.31799332
7	0.024	-1.5345172	0.036399504	-0.028439573	-0.94160895	0.093452044	0.10194212	-1.6793037	0.079561664	-0.062777486	-1.0917567	0.071973309	0.11807456	-1.656628	0.096866273	0.031709791	-1.0795446	0.11297322	0.029406945	NaN	NaN	NaN	-1.1393279	0.033017885	0.057792734	-1.5256853	0.46804307	-0.12213288	-1.1789341	0.5214237	0.16761661	-1.5271272	0.47039264	0.0031948031	-1.1683345	0.50559583	0.041671898	-1.4106563	0.87369404	-0.167505	-1.3859465	0.86892047	0.20250231	-1.3058134	0.94680944	-0.11311574	-1.3036992	0.95133274	0.12813156	-1.4679154	1.0123623	0.014426495	-1.2704252	1.4013299	-0.14142837	-1.3079806	1.4115469	0.18367853	-1.3486051	1.4590863	0.018322114	-1.3737004	1.0415618	-0.23596301	NaN	NaN	NaN	-1.1237831	0.929668	-0.22048148	-1.3801957	0.84533849	0.31810827
8	0.028	-1.534437	0.036372865	-0.028472053	-0.92485621	0.097105959	0.10297408	-1.6786997	0.080490245	-0.062659031	-1.0751137	0.07247233	0.1189173	-1.6560462	0.097554014	0.031840881	-1.0635282	0.11380316	0.030316628	NaN	NaN	NaN	-1.1217505	0.032618881	0.058603452	-1.5228998	0.46804295	-0.12213672	-1.1728155	0.51999182	0.16803042	-1.5241845	0.4703427	0.0032210449	-1.1613961	0.50427701	0.041906828	-1.4051068	0.8726004	-0.16706918	-1.3798299	0.86732536	0.20273992	-1.2998514	0.94545609	-0.11310681	-1.2972888	0.94988265	0.12818771	-1.4618691	1.0107494	0.014448016	-1.264575	1.4002491	-0.14102037	-1.3021235	1.4100587	0.18407399	-1.3427443	1.4577955	0.018664605	-1.3668865	1.0402154	-0.23601165	NaN	NaN	NaN	-1.1163001	0.92984069	-0.21975722	-1.3736813	0.84372798	0.31820149
9	0.032	-1.5343022	0.03635416	-0.028536336	-0.9087801	0.10084481	0.10393343	-1.6782342	0.081421674	-0.062592072	-1.0588863	0.073133256	0.11977444	-1.6555178	0.098277473	0.031895854	-1.0479711	0.11474633	0.031202204	NaN	NaN	NaN	-1.1046294	0.032348315	0.059528677	-1.5199239	0.46803369	-0.12216907	-1.1665609	0.51855856	0.16843832	-1.5210299	0.47028734	0.0032208769	-1.1544697	0.50296852	0.04211173	-1.3995127	0.87151936	-0.16666567	-1.3736164	0.86572553	0.20298232	-1.2938885	0.9441254	-0.1131074	-1.2908563	0.94845789	0.1282477	-1.4557808	1.0091625	0.014540466	-1.258701	1.3991889	-0.14059272	-1.2962183	1.4085863	0.1844693	-1.3368298	1.4564849	0.019047319	-1.3600697	1.0388916	-0.23599509	NaN	NaN	NaN	-1.1088755	0.92998648	-0.21901231	-1.367164	0.84212587	0.31827023
10	0.036	-1.5341224	0.036336581	-0.028629577	-0.89337268	0.10463167	0.10478975	-1.6777814	0.082389457	-0.062585773	-1.0431419	0.073918572	0.12063458	-1.6549879	0.09905953	0.03187642	-1.0329328	0.11575412	0.032047231	NaN	NaN	NaN	-1.0879205	0.032126013	0.060700935	-1.5167382	0.46800535	-0.12222673	-1.1602285	0.5171364	0.16883286	-1.5176844	0.47022907	0.0032125783	-1.1475661	0.50168365	0.042275017	-1.3938689	0.87044398	-0.16629933	-1.3672865	0.86412212	0.20322824	-1.2879237	0.94282325	-0.11311855	-1.2844001	0.94705642	0.12830778	-1.4496238	1.0076222	0.014758884	-1.2527924	1.3981615	-0.14014452	-1.290266	1.4071306	0.18486099	-1.3308748	1.4551875	0.019437056	-1.3532608	1.0376003	-0.2359612	NaN	NaN	NaN	-1.1015037	0.93010637	-0.21824833	-1.3606305	0.84053046	0.31831813
11	0.04	-1.5339687	0.036317869	-0.028719721	-0.87860221	0.10843456	0.10553714	-1.6772594	0.083409884	-0.062652364	-1.0278696	0.074803623	0.12149867	-1.6544123	0.099888569	0.031793569	-1.018446	0.11678394	0.03284102	NaN	NaN	NaN	-1.0716717	0.031946591	0.062075115	-1.5133269	0.46793797	-0.12230014	-1.1538091	0.51573946	0.16922063	-1.5141541	0.47014589	0.0032134984	-1.1406907	0.50042368	0.042402616	-1.3881805	0.86936622	-0.16595462	-1.3608219	0.86251447	0.20347766	-1.2819357	0.94154669	-0.11313923	-1.2778881	0.94567343	0.12836353	-1.4434071	1.0061057	0.015092541	-1.2468315	1.397158	-0.13968415	-1.2842638	1.4056902	0.18524986	-1.3249009	1.4539078	0.019791632	-1.3464702	1.0363534	-0.23593317	NaN	NaN	NaN	-1.0941873	0.93018921	-0.21746736	-1.3540701	0.83893874	0.31834697
